# xmcd
#
# Track frame offsets:
#	150
#	18537
#	36672
#
# Disc length: 742 seconds
#
# Revision: 3
# Processed by: cddbd v1.5.2PL0 Copyright (c) Steve Scherf et al.
# Submitted via: EasyCDDAExtractor 15.3.0.1
#
DISCID=2302e403
DTITLE=Anastacia - I'm Outta Love
DYEAR=2000
DGENRE=Pop
TTITLE0=I'm Outta Love (Album Version)
TTITLE1=I'm Outta Love (Hex Hector Radio Mix)
TTITLE2=Baptize My Soul
EXTD=
EXTT0=
EXTT1=
EXTT2=
PLAYORDER=
